<svg width="27" height="28" viewBox="0 0 27 28" fill="none" xmlns="http://www.w3.org/2000/svg">
<path d="M26.8629 24.6124C26.7119 24.0355 26.3741 23.525 25.9019 23.1608C25.4297 22.7966 24.8498 22.5991 24.2535 22.5995C23.6523 22.5927 23.0669 22.7905 22.5928 23.1601C22.1187 23.5297 21.7841 24.0494 21.644 24.634H20.8893C20.5289 24.6283 20.185 24.4813 19.9321 24.2244C19.6793 23.9675 19.5375 23.6215 19.5376 23.261V17.8334H21.1694C22.3086 17.834 23.417 17.4624 24.3254 16.7751C25.2339 16.0878 25.8927 15.1224 26.202 14.0261C26.5113 12.9297 26.4541 11.7623 26.0388 10.7016C25.6234 9.64087 24.8729 8.74493 23.9014 8.15007C23.9125 7.94414 23.9125 7.73768 23.9014 7.53175C23.9023 6.17467 23.5362 4.84262 22.842 3.67653C22.1479 2.51043 21.1512 1.55378 19.9577 0.907706C18.7643 0.261634 17.4184 -0.0497821 16.0625 0.00646956C14.7066 0.0627213 13.3912 0.484429 12.2554 1.22713C11.2146 1.91805 10.3564 2.85034 9.75367 3.94453C9.51644 3.94453 9.27921 3.90855 9.03479 3.90855C7.71428 3.90576 6.43 4.34073 5.3828 5.14518C4.43479 5.87231 3.71428 6.8549 3.30549 7.97754C2.84126 8.22063 2.41699 8.5334 2.04744 8.90493C1.31425 9.63545 0.81443 10.5672 0.61143 11.5821C0.40843 12.597 0.511206 13.6493 0.906986 14.6056C1.30277 15.562 1.97359 16.3793 2.83442 16.9539C3.69525 17.5286 4.70725 17.8346 5.74225 17.8334H7.37413V23.2682C7.37417 23.6286 7.23244 23.9747 6.97958 24.2316C6.72673 24.4885 6.38312 24.6355 6.02271 24.6412H5.30383C5.16375 24.0566 4.82914 23.5369 4.35503 23.1673C3.88091 22.7977 3.2955 22.5999 2.69437 22.6067C2.19062 22.607 1.69703 22.7486 1.26959 23.0151C0.842142 23.2817 0.497805 23.6626 0.275857 24.1148C0.0539099 24.5671 -0.0369889 25.0723 0.0136477 25.5735C0.0642842 26.0747 0.254372 26.5517 0.562287 26.9504C0.870202 27.349 1.28362 27.6535 1.75575 27.8291C2.22787 28.0048 2.7399 28.0447 3.23353 27.9443C3.72715 27.8438 4.18287 27.607 4.54879 27.2608C4.91471 26.9146 5.17621 26.4729 5.30383 25.9856H6.02271C6.73966 25.9799 7.42518 25.6911 7.93014 25.1821C8.43509 24.6731 8.71854 23.9852 8.71852 23.2682V17.8334H12.7657V22.6787C12.1282 22.8423 11.5723 23.233 11.2023 23.7773C10.8323 24.3217 10.6737 24.9824 10.7562 25.6355C10.8387 26.2885 11.1568 26.8891 11.6506 27.3244C12.1443 27.7597 12.7797 27.9997 13.4379 27.9997C14.0962 27.9997 14.7319 27.7597 15.2257 27.3244C15.7194 26.8891 16.0372 26.2885 16.1197 25.6355C16.2022 24.9824 16.0436 24.3217 15.6736 23.7773C15.3036 23.233 14.7477 22.8423 14.1101 22.6787V17.8334H18.1574V23.2682C18.1573 23.9852 18.4408 24.6731 18.9458 25.1821C19.4507 25.6911 20.1362 25.9799 20.8532 25.9856H21.6082C21.6979 26.3283 21.854 26.6498 22.0681 26.9321C22.282 27.2144 22.5496 27.4519 22.8554 27.6308C23.1611 27.8097 23.4989 27.9265 23.8498 27.9748C24.2007 28.0231 24.5577 28.0018 24.9004 27.9122C25.2431 27.8225 25.5648 27.6661 25.8471 27.4521C26.1294 27.2381 26.3667 26.9707 26.5456 26.665C26.7245 26.3593 26.8417 26.0211 26.89 25.6702C26.9383 25.3193 26.9168 24.9623 26.8271 24.6196L26.8629 24.6124ZM2.69437 26.6253C2.42646 26.6267 2.16408 26.5485 1.94073 26.4005C1.71738 26.2525 1.54301 26.0415 1.43983 25.7943C1.33665 25.547 1.30928 25.2747 1.3612 25.0119C1.41312 24.749 1.54208 24.5077 1.73153 24.3183C1.92097 24.1288 2.1623 23.9999 2.42513 23.9479C2.68797 23.896 2.96031 23.9234 3.20755 24.0266C3.4548 24.1297 3.6658 24.3041 3.81376 24.5275C3.96171 24.7508 4.03983 25.0132 4.03841 25.2811C4.03652 25.6371 3.89451 25.9779 3.64281 26.2296C3.39111 26.4813 3.05032 26.6234 2.69437 26.6253ZM14.8217 25.2811C14.8217 25.5484 14.7427 25.8097 14.5942 26.0319C14.4457 26.2542 14.2346 26.4274 13.9876 26.5297C13.7407 26.632 13.4688 26.6587 13.2066 26.6065C12.9445 26.5544 12.7038 26.4258 12.5148 26.2367C12.3258 26.0477 12.1969 25.8069 12.1448 25.5447C12.0926 25.2826 12.1194 25.0108 12.2217 24.7639C12.324 24.5169 12.4972 24.3058 12.7194 24.1573C12.9417 24.0088 13.2029 23.9295 13.4702 23.9295C13.8274 23.9314 14.1696 24.0747 14.4215 24.3279C14.6734 24.5812 14.8146 24.9239 14.8146 25.2811H14.8217ZM5.7784 16.4748C5.01028 16.4752 4.25916 16.2477 3.62035 15.8212C2.98153 15.3947 2.48361 14.7882 2.1896 14.0786C1.89559 13.3689 1.81883 12.588 1.96881 11.8347C2.11879 11.0814 2.48867 10.3894 3.03204 9.84653C3.36803 9.51986 3.75701 9.25259 4.18233 9.05587L4.4484 8.93371L4.53475 8.64605C4.87371 7.50818 5.6258 6.5382 6.64331 5.92637C7.66081 5.31454 8.87016 5.10515 10.0341 5.3393L10.5515 5.43986L10.7744 4.95827C11.2708 3.89841 12.0491 2.99551 13.0244 2.34863C13.9566 1.73743 15.0369 1.39004 16.1506 1.34314C17.2643 1.29625 18.3702 1.55153 19.3505 2.08221C20.3308 2.61288 21.1492 3.39915 21.7188 4.35733C22.2884 5.3155 22.5879 6.40986 22.5858 7.52455C22.5809 7.80571 22.5617 8.08656 22.5282 8.36577L22.4707 8.91212L22.8877 9.12045C23.6749 9.50623 24.3079 10.1477 24.6835 10.9398C25.0591 11.7319 25.1553 12.6278 24.9559 13.4815C24.7564 14.3351 24.2732 15.0959 23.5855 15.6395C22.8978 16.1832 22.0461 16.4777 21.1694 16.4748H5.7784ZM24.2535 26.6253C23.9859 26.6253 23.7244 26.5458 23.502 26.397C23.2796 26.2482 23.1063 26.0367 23.0042 25.7894C22.9021 25.542 22.876 25.2698 22.9287 25.0075C22.9815 24.7451 23.1107 24.5044 23.3005 24.3156C23.4902 24.1269 23.7318 23.9987 23.9944 23.9474C24.2571 23.8961 24.529 23.9239 24.7758 24.0273C25.0226 24.1307 25.2333 24.305 25.381 24.5282C25.5286 24.7514 25.6063 25.0135 25.6049 25.2811C25.6049 25.4582 25.5701 25.6335 25.5021 25.7971C25.434 25.9607 25.3345 26.1092 25.209 26.2341C25.0834 26.359 24.9341 26.458 24.7702 26.5251C24.6063 26.5922 24.4306 26.6263 24.2535 26.6253Z" fill="white"/>
</svg>
