<svg width="29" height="29" viewBox="0 0 29 29" fill="none" xmlns="http://www.w3.org/2000/svg">
<path d="M26.3424 0.500251C24.1852 -0.167401 21.8765 -0.167401 19.7194 0.500251C18.9727 0.776517 18.0394 1.29171 18.0394 2.17278V6.93642H9.99047V2.17278C9.99047 1.29171 9.07207 0.776517 8.31047 0.500251C6.1533 -0.167401 3.84461 -0.167401 1.68745 0.500251C0.940782 0.776517 0.0149231 1.29171 0.0149231 2.17278V11.2372C0.0149231 12.1183 0.925849 12.6335 1.68745 12.9098C2.75447 13.2596 3.87239 13.4288 4.99513 13.4101C5.26393 13.4101 5.54773 13.4101 5.80906 13.4101L9.05714 19.0176V25.8421C9.05714 26.7306 9.95311 27.2458 10.7147 27.5221C11.7794 27.8708 12.8947 28.0398 14.0149 28.0223C14.7385 28.0213 15.4606 27.9564 16.1727 27.8281C17.9572 27.4847 18.9727 26.7605 18.9727 25.8421V19.0176L22.2208 13.4101C22.4821 13.4101 22.7584 13.4101 23.0272 13.4101C23.756 13.4129 24.4833 13.3479 25.2 13.216C26.9845 12.8725 28.0149 12.1482 28.0149 11.2372V2.17278C28 1.29171 27.0891 0.776517 26.3424 0.500251ZM4.99513 1.1647C7.6234 1.1647 8.8032 1.96371 8.8032 2.17278C8.8032 2.38184 7.6234 3.18067 4.99513 3.18067C2.36686 3.18067 1.17977 2.38184 1.17977 2.17278C1.17977 1.96371 2.34445 1.1647 4.98018 1.1647H4.99513ZM1.17977 3.62874C1.34423 3.71166 1.51376 3.78401 1.68745 3.8453C3.84461 4.51295 6.1533 4.51295 8.31047 3.8453C8.47474 3.78557 8.64642 3.71087 8.81815 3.62874V5.18934C8.81815 5.39094 7.63087 6.19723 5.00261 6.19723C2.37434 6.19723 1.17977 5.39094 1.17977 5.18934V3.62874ZM1.17977 6.61541C1.34403 6.69754 1.51572 6.76477 1.68745 6.83197C2.75447 7.1818 3.87239 7.35082 4.99513 7.33218C6.12024 7.34957 7.2406 7.18059 8.31047 6.83197C8.47474 6.77224 8.64642 6.69754 8.81815 6.61541V8.16853C8.81815 8.3776 7.63087 9.17642 5.00261 9.17642C2.37434 9.17642 1.17977 8.3776 1.17977 8.16853V6.61541ZM4.99513 12.2154C2.36686 12.2154 1.17977 11.4164 1.17977 11.2073V9.63197C1.34435 9.71248 1.5139 9.78233 1.68745 9.84106C2.75309 10.1973 3.87169 10.369 4.99513 10.3487C6.12092 10.3677 7.24194 10.196 8.31047 9.84106C8.47474 9.78132 8.64642 9.7141 8.81815 9.63197V11.2073C8.81815 11.2671 8.46721 11.745 6.94401 12.0362C6.2964 12.1566 5.6389 12.2166 4.98018 12.2154H4.99513ZM17.808 25.7898C17.808 25.857 17.4646 26.3349 15.9489 26.6261C15.3115 26.7469 14.6636 26.8044 14.0149 26.7978C11.3867 26.7978 10.2218 25.9988 10.2218 25.7898V24.2144C10.381 24.2976 10.5457 24.37 10.7147 24.431C12.8643 25.0982 15.1655 25.0982 17.3151 24.431C17.4835 24.3686 17.6482 24.2963 17.808 24.2144V25.7898ZM17.808 22.7584C17.808 22.9675 16.6432 23.7663 14.0149 23.7663C11.3867 23.7663 10.2218 22.9675 10.2218 22.7584V21.2053C10.3935 21.2874 10.5504 21.3547 10.7147 21.4144C12.8643 22.0816 15.1655 22.0816 17.3151 21.4144C17.4794 21.3547 17.6288 21.2874 17.808 21.2053V22.7584ZM17.808 19.7718C17.808 19.9808 16.6432 20.7797 14.0149 20.7797C11.3792 20.7797 10.2218 19.9808 10.2218 19.7718V18.1887C10.3935 18.2709 10.5504 18.3456 10.7147 18.4053C12.8643 19.0725 15.1655 19.0725 17.3151 18.4053C17.4794 18.3456 17.6288 18.2709 17.808 18.1887V19.7419V19.7718ZM14.0149 17.7631C11.3792 17.7631 10.1994 16.9643 10.1994 16.7552C10.1994 16.5461 11.3792 15.7471 14.0149 15.7471C16.6507 15.7471 17.823 16.5536 17.823 16.7552C17.823 16.9568 16.6357 17.7631 14 17.7631H14.0149ZM18.9877 16.6655C18.9279 15.8367 18.0543 15.3515 17.3226 15.0827C15.1678 14.4166 12.8621 14.4166 10.7072 15.0827C9.96057 15.3515 9.10191 15.8292 9.03471 16.6655L7.06341 13.231H7.16805C8.95258 12.8875 9.99047 12.1631 9.99047 11.2522V8.12369H18.0394V11.2522C18.0394 12.1332 18.9578 12.6484 19.7194 12.9247C20.1253 13.0682 20.5425 13.178 20.9664 13.2532L18.9877 16.6655ZM26.8426 11.2372C26.8426 11.297 26.4991 11.7749 24.9834 12.0661C24.3381 12.1853 23.6834 12.2453 23.0272 12.2453C20.3915 12.2453 19.2042 11.4463 19.2042 11.2372V9.66187C19.376 9.744 19.5551 9.81122 19.7194 9.87095C21.8726 10.5479 24.1817 10.5479 26.3349 9.87095C26.509 9.81355 26.6786 9.74366 26.8426 9.66187V11.2372ZM23.0272 9.20632C20.3915 9.20632 19.2042 8.40749 19.2042 8.19843V6.6453C19.376 6.72744 19.5551 6.80213 19.7194 6.86187C21.8742 7.52798 24.1801 7.52798 26.3349 6.86187C26.5079 6.79868 26.6773 6.72637 26.8426 6.6453V8.19843C26.8277 8.40749 25.6406 9.22874 23.0123 9.22874L23.0272 9.20632ZM26.8426 5.18934C26.8426 5.39094 25.6555 6.19723 23.0272 6.19723C20.3915 6.19723 19.2042 5.39094 19.2042 5.18934V3.62874C19.376 3.71087 19.5551 3.78557 19.7194 3.8453C21.8742 4.51142 24.1801 4.51142 26.3349 3.8453C26.5091 3.78538 26.6788 3.71299 26.8426 3.62874V5.18934ZM23.0347 3.18067C20.399 3.18067 19.2192 2.38184 19.2192 2.17278C19.2192 1.96371 20.4064 1.1647 23.0347 1.1647C25.663 1.1647 26.8426 1.96371 26.8426 2.17278C26.8426 2.38184 25.648 3.18067 23.0198 3.18067H23.0347Z" fill="white"/>
</svg>
