<svg width="28" height="26" viewBox="0 0 28 26" fill="none" xmlns="http://www.w3.org/2000/svg">
<path d="M24.6699 0H3.33756C2.45237 0 1.60353 0.351709 0.977608 0.97763C0.351687 1.60355 -2.20591e-05 2.45239 -2.20591e-05 3.33758V15.441C-0.00200832 16.3229 0.345892 17.1696 0.9674 17.7953C1.58891 18.421 2.43322 18.7746 3.31513 18.7786H8.68381V21.5339H7.81008C7.45157 21.5378 7.10897 21.6824 6.85615 21.9366C6.60333 22.1908 6.46069 22.5342 6.45875 22.8927V24.2442C6.45973 24.4198 6.49514 24.5934 6.56321 24.7552C6.63128 24.917 6.73062 25.0638 6.85542 25.1872C6.98022 25.3107 7.12802 25.4083 7.29055 25.4745C7.45308 25.5408 7.62709 25.5743 7.80261 25.5733H20.1899C20.3657 25.5753 20.54 25.5424 20.703 25.4765C20.866 25.4106 21.0142 25.313 21.1392 25.1894C21.2642 25.0658 21.3636 24.9185 21.4313 24.7563C21.499 24.5941 21.5339 24.42 21.5339 24.2442V22.8927C21.5339 22.5349 21.3927 22.1916 21.1411 21.9372C20.8894 21.6827 20.5477 21.5379 20.1899 21.5339H19.3163V18.7786H24.6549C25.0922 18.7806 25.5256 18.6964 25.9304 18.5309C26.3352 18.3653 26.7035 18.1218 27.0141 17.8139C27.3248 17.5061 27.5716 17.14 27.7408 16.7367C27.9099 16.3335 27.998 15.9008 28 15.4634V3.35253C28.002 2.46665 27.6525 1.61616 27.0282 0.987656C26.4039 0.359148 25.5557 0.0039526 24.6699 0ZM20.1899 22.8853V24.2293H7.80261V22.8853H20.1899ZM10.0277 21.5339V18.7786H17.9723V21.5339H10.0277ZM26.7157 15.4784C26.7167 15.7438 26.6653 16.0068 26.5644 16.2522C26.4636 16.4977 26.3151 16.7208 26.1278 16.9088C25.9405 17.0968 25.7179 17.2458 25.4729 17.3476C25.2278 17.4494 24.9651 17.5018 24.6998 17.5018H3.35998C3.0946 17.5018 2.83178 17.4494 2.5867 17.3476C2.34162 17.2458 2.11921 17.0968 1.93191 16.9088C1.7446 16.7208 1.59619 16.4977 1.49532 16.2522C1.39444 16.0068 1.34303 15.7438 1.34401 15.4784V3.36747C1.34303 3.1021 1.39444 2.8391 1.49532 2.59365C1.59619 2.34819 1.7446 2.12503 1.93191 1.93703C2.11921 1.74904 2.34162 1.59985 2.5867 1.49807C2.83178 1.39629 3.0946 1.34403 3.35998 1.34404H24.6998C24.9651 1.34403 25.2278 1.39629 25.4729 1.49807C25.7179 1.59985 25.9405 1.74904 26.1278 1.93703C26.3151 2.12503 26.4636 2.34819 26.5644 2.59365C26.6653 2.8391 26.7167 3.1021 26.7157 3.36747V15.4784Z" fill="white"/>
<path d="M23.214 4.80857C23.0359 4.72799 22.8474 4.67273 22.654 4.64432C22.2517 4.58696 21.8414 4.64352 21.4696 4.80766C21.0979 4.9718 20.7795 5.23697 20.5509 5.57292C20.3223 5.90887 20.1924 6.30219 20.1761 6.70823C20.1598 7.11427 20.2579 7.51678 20.4588 7.86998L18.7116 9.46029C18.4821 9.25438 18.2114 9.09996 17.9175 9.00711C17.6235 8.91426 17.313 8.88522 17.007 8.92198C16.7009 8.95874 16.4063 9.0604 16.1427 9.22021C15.8791 9.38002 15.6526 9.5942 15.4784 9.84857L13.3952 8.16857C13.3941 7.62163 13.186 7.09548 12.8128 6.69565C12.4396 6.29582 11.929 6.05192 11.3834 6.01315C10.8379 5.97439 10.2979 6.14352 9.87187 6.48656C9.44589 6.82961 9.16538 7.32122 9.08693 7.8625C9.06825 8.02873 9.06825 8.19648 9.08693 8.36271L7.08591 10.416C6.8323 10.1973 6.5314 10.0404 6.2069 9.95758C5.8824 9.8748 5.54317 9.86846 5.21578 9.93899C4.88839 10.0095 4.58183 10.1551 4.32018 10.3641C4.05854 10.5731 3.84893 10.84 3.70786 11.1438C3.5668 11.4475 3.49807 11.7799 3.50716 12.1146C3.51625 12.4494 3.60285 12.7775 3.76018 13.0731C3.91751 13.3688 4.14128 13.6238 4.41388 13.8183C4.68648 14.0129 5.00062 14.1416 5.33135 14.1942H5.65237C6.22734 14.1922 6.77812 13.9624 7.18398 13.5551C7.58985 13.1478 7.81763 12.5965 7.81763 12.0215C7.81728 11.8735 7.80223 11.7259 7.77278 11.5809L9.66187 9.64695C9.99301 9.99576 10.4327 10.2222 10.9089 10.2892C11.0158 10.2968 11.1231 10.2968 11.2299 10.2892C11.6928 10.2902 12.1435 10.1408 12.5142 9.86352C12.6688 9.75128 12.807 9.61807 12.9249 9.46776L15.0976 11.2225C15.1501 11.7948 15.4278 12.3227 15.8696 12.6903C16.3114 13.0579 16.8811 13.235 17.4534 13.1825C18.0257 13.13 18.5538 12.8523 18.9214 12.4105C19.289 11.9687 19.4659 11.399 19.4134 10.8267C19.4134 10.7521 19.4134 10.6774 19.4134 10.6027L21.4891 8.7211C21.7495 8.83582 22.0298 8.89812 22.3142 8.90448C22.5986 8.91085 22.8815 8.86124 23.1467 8.75828C23.4119 8.65532 23.6542 8.50117 23.8598 8.30456C24.0655 8.10795 24.2304 7.87273 24.3451 7.6124C24.4598 7.35206 24.5221 7.07158 24.5285 6.78716C24.5349 6.50274 24.4853 6.21984 24.3823 5.95464C24.2793 5.68943 24.125 5.44713 23.9284 5.24151C23.7318 5.0359 23.4967 4.87097 23.2364 4.75625L23.214 4.80857ZM6.46612 12.1708C6.44462 12.327 6.37878 12.4736 6.27617 12.5933C6.17356 12.713 6.03859 12.8007 5.88752 12.8458C5.73646 12.8909 5.57558 12.8915 5.42414 12.8476C5.2727 12.8038 5.1371 12.7174 5.03349 12.5986C4.92987 12.4798 4.86271 12.3335 4.83989 12.1775C4.81708 12.0215 4.83954 11.8624 4.90479 11.7189C4.97004 11.5754 5.07521 11.4535 5.20776 11.3682C5.3403 11.2828 5.49471 11.2375 5.65237 11.2374H5.77924C5.88595 11.2529 5.98847 11.2894 6.08094 11.3448C6.1734 11.4003 6.254 11.4736 6.31791 11.5605C6.38183 11.6473 6.4279 11.7459 6.45336 11.8507C6.47881 11.9555 6.48306 12.0643 6.46612 12.1708ZM12.0439 8.29563C12.0201 8.45621 11.9491 8.60606 11.8401 8.72638C11.7311 8.84671 11.589 8.932 11.4316 8.97156C11.2741 9.01113 11.1085 9.00311 10.9556 8.9486C10.8027 8.89408 10.6693 8.79556 10.5724 8.66531C10.4755 8.53507 10.4194 8.379 10.4111 8.21688C10.4028 8.05475 10.4428 7.89383 10.5259 7.7544C10.6091 7.61497 10.7317 7.50319 10.8783 7.43339C11.0249 7.36359 11.1887 7.33896 11.3493 7.36229C11.4563 7.37782 11.5591 7.41413 11.652 7.46948C11.7448 7.52483 11.8259 7.59806 11.8904 7.68477C11.9549 7.77147 12.0017 7.86998 12.028 7.97479C12.0544 8.0796 12.0597 8.18873 12.0439 8.29563ZM18.0768 11.1926C18.0544 11.3538 17.9846 11.5047 17.8763 11.6261C17.768 11.7475 17.6262 11.8341 17.4687 11.8747C17.3112 11.9154 17.145 11.9084 16.9915 11.8545C16.8379 11.8007 16.7039 11.7023 16.6063 11.5721C16.5087 11.442 16.452 11.2858 16.4433 11.1233C16.4346 10.9609 16.4743 10.7994 16.5574 10.6596C16.6406 10.5197 16.7633 10.4078 16.9102 10.3378C17.057 10.2679 17.2215 10.2432 17.3825 10.2667C17.4891 10.2814 17.5918 10.317 17.6845 10.3716C17.7773 10.4261 17.8584 10.4986 17.923 10.5847C17.9875 10.6708 18.0344 10.7689 18.0608 10.8732C18.0872 10.9776 18.0926 11.0861 18.0768 11.1926ZM23.1542 6.90675C23.1313 7.06236 23.0643 7.20814 22.961 7.32675C22.8577 7.44535 22.7224 7.53174 22.5714 7.57576C22.4204 7.61977 22.26 7.61955 22.1091 7.57503C21.9583 7.5305 21.8234 7.44351 21.7205 7.32456C21.6176 7.2056 21.551 7.0597 21.5287 6.90401C21.5063 6.74832 21.529 6.58938 21.5943 6.44628C21.6596 6.30318 21.7647 6.18199 21.8969 6.09682C22.0292 6.01166 22.183 5.96618 22.3403 5.96594H22.4598C22.5672 5.98052 22.6706 6.01642 22.7639 6.07149C22.8572 6.12655 22.9386 6.19966 23.0033 6.28659C23.0679 6.37352 23.1146 6.4725 23.1405 6.57771C23.1664 6.68292 23.1711 6.79224 23.1542 6.89927V6.90675Z" fill="white"/>
</svg>
