<svg width="28" height="29" viewBox="0 0 28 29" fill="none" xmlns="http://www.w3.org/2000/svg">
<path d="M25.4414 13.7964L25.0852 13.6802C25.0852 13.3094 25.1361 12.9532 25.1361 12.568C25.1332 9.92329 24.2951 7.34712 22.7414 5.20692C21.1877 3.06673 18.9979 1.47175 16.4842 0.64981C13.9705 -0.172135 11.2613 -0.17908 8.74335 0.629756C6.22539 1.43859 4.02716 3.02197 2.46235 5.15404C0.897535 7.28611 0.0461565 9.85786 0.0294854 12.5025C0.0128143 15.1471 0.831724 17.7295 2.36953 19.8811C3.90734 22.0328 6.08547 23.6439 8.59304 24.4844C11.1006 25.3249 13.8095 25.3519 16.3333 24.5617V25.6521C16.3333 26.1755 16.6459 26.9096 18.1506 27.4548C19.3228 27.8401 20.5512 28.0268 21.7851 28.0072C22.5848 28.0076 23.3829 27.9345 24.1693 27.7891C26.1246 27.4184 27.244 26.6334 27.244 25.6521V15.5991C27.2586 15.0757 26.9533 14.3416 25.4414 13.7964ZM9.71142 1.54086C8.26495 2.77377 7.12934 4.3302 6.39674 6.08395C5.70612 5.64026 5.06528 5.12371 4.48509 4.54303C5.9245 3.08919 7.73038 2.05176 9.71142 1.54086ZM3.69999 5.4371C4.38218 6.12004 5.14632 6.71575 5.97508 7.21068C5.46235 8.75963 5.18555 10.377 5.15378 12.0083H1.18496C1.29828 9.60639 2.177 7.30375 3.69271 5.4371H3.69999ZM1.18496 13.1785H5.1465C5.18207 14.8023 5.45881 16.4118 5.96781 17.9542C5.14227 18.4538 4.37868 19.0491 3.69271 19.7278C2.1831 17.866 1.30487 15.5723 1.18496 13.1785ZM4.48509 20.5929C5.06352 20.0124 5.70462 19.4979 6.39674 19.0591C7.13124 20.8118 8.26656 22.3678 9.71142 23.6022C7.73111 23.0855 5.92607 22.0463 4.48509 20.5929ZM11.9865 23.7403C9.91103 22.5598 8.30445 20.7018 7.43615 18.4776C8.85481 17.7715 10.4039 17.3657 11.9865 17.2855V23.7403ZM11.9865 16.1151C10.2623 16.1914 8.57245 16.6219 7.02195 17.3799C6.59191 16.0185 6.34741 14.6052 6.29505 13.1785H11.9576L11.9865 16.1151ZM11.9865 12.0083H6.32416C6.3723 10.5739 6.61687 9.15287 7.05105 7.78495C8.60416 8.53269 10.2934 8.95562 12.0156 9.02791L11.9865 12.0083ZM11.9865 7.85044C10.4044 7.77271 8.85529 7.36926 7.43615 6.66551C8.30406 4.43921 9.91053 2.5787 11.9865 1.39552V7.85044ZM23.9441 12.0083H19.9824C19.9482 10.3695 19.669 8.74492 19.1538 7.18885C19.9684 6.68034 20.7242 6.08309 21.4072 5.40799C22.941 7.27778 23.8307 9.59253 23.9441 12.0083ZM23.9441 13.1785C23.9441 13.2366 23.9441 13.3384 23.9441 13.4257C23.2407 13.3037 22.528 13.2429 21.8142 13.2439C21.2036 13.2438 20.5939 13.2875 19.9896 13.3747C19.9896 13.3093 19.9896 13.2366 19.9896 13.1785H23.9441ZM20.6148 4.51392C20.0423 5.09429 19.4086 5.61106 18.7249 6.05503C17.9925 4.3113 16.8594 2.76464 15.4174 1.54086C17.3877 2.05351 19.1833 3.0882 20.6148 4.53575V4.51392ZM13.1569 1.39552C15.2124 2.59144 16.8109 4.43803 17.7 6.64368C16.2864 7.3584 14.7389 7.76953 13.1569 7.85044V1.39552ZM13.1569 9.02791C14.8762 8.95591 16.5619 8.52771 18.1071 7.7704C18.5442 9.14259 18.7888 10.5688 18.834 12.0083H13.1423V9.02791H13.1569ZM13.1569 23.7403V17.2855C14.2403 17.3404 15.31 17.5508 16.3333 17.9106V20.9127C15.4859 22.0743 14.3974 23.0388 13.1423 23.7403H13.1569ZM16.3333 23.3261C16.0353 23.4351 15.7227 23.5222 15.4174 23.6022C15.7384 23.3334 16.0441 23.0471 16.3333 22.7445V23.3261ZM16.3333 15.5991V16.6676C15.3025 16.347 14.2352 16.1589 13.1569 16.1079V13.2003H18.8049C18.8049 13.3239 18.8049 13.4838 18.8049 13.6292C18.5868 13.6874 18.3687 13.7528 18.1724 13.8255C16.6459 14.3416 16.3333 15.0757 16.3333 15.5991ZM26.0811 25.6521C26.0811 25.7975 25.5649 26.328 23.9657 26.6333C23.2468 26.7685 22.5166 26.8342 21.7851 26.8296C20.6828 26.8514 19.5847 26.6893 18.5359 26.3499C17.7508 26.0664 17.4964 25.7538 17.4964 25.623V23.7766C17.704 23.8865 17.9203 23.979 18.1433 24.053C20.511 24.7849 23.0445 24.7849 25.4123 24.053C25.6329 23.979 25.8469 23.8865 26.052 23.7766L26.0811 25.6521ZM26.0811 22.2865C26.0811 22.3882 25.8268 22.6935 25.0417 23.0134C22.9228 23.6529 20.6621 23.6529 18.5431 23.0134C17.7581 22.7226 17.5037 22.4173 17.5037 22.2865V20.462C17.7113 20.5719 17.9276 20.6644 18.1506 20.7383C20.5183 21.4702 23.0518 21.4702 25.4195 20.7383C25.6401 20.6643 25.8542 20.5718 26.0593 20.462L26.0811 22.2865ZM26.0811 18.9429C26.0811 19.0446 25.8268 19.3499 25.0417 19.6334C22.9242 20.2826 20.6606 20.2826 18.5431 19.6334C17.7581 19.3499 17.5037 19.0446 17.5037 18.9429V17.1183C17.7113 17.2283 17.9276 17.3206 18.1506 17.3945C20.5183 18.1264 23.0518 18.1264 25.4195 17.3945C25.6401 17.3205 25.8542 17.2282 26.0593 17.1183L26.0811 18.9429ZM25.0488 16.2896C22.9299 16.9291 20.6693 16.9291 18.5504 16.2896C17.7581 16.0061 17.5037 15.7008 17.5037 15.5627C17.5037 15.4246 17.7581 15.1557 18.5504 14.8722C20.6679 14.223 22.9313 14.223 25.0488 14.8722C25.8338 15.1557 26.0884 15.4609 26.0884 15.5627C26.0884 15.6645 25.8338 16.0061 25.0488 16.2896Z" fill="white"/>
<path d="M22.5919 18.405H20.8909C20.7347 18.405 20.585 18.4669 20.4746 18.5773C20.3641 18.6878 20.3022 18.8375 20.3022 18.9937C20.3022 19.1498 20.3641 19.2996 20.4746 19.41C20.585 19.5204 20.7347 19.5825 20.8909 19.5825H22.5919C22.7481 19.5825 22.8978 19.5204 23.0082 19.41C23.1186 19.2996 23.1807 19.1498 23.1807 18.9937C23.1807 18.8375 23.1186 18.6878 23.0082 18.5773C22.8978 18.4669 22.7481 18.405 22.5919 18.405Z" fill="white"/>
<path d="M22.5919 21.8141H20.8909C20.7347 21.8141 20.585 21.8762 20.4746 21.9866C20.3641 22.097 20.3022 22.2468 20.3022 22.4029C20.3022 22.5591 20.3641 22.7088 20.4746 22.8192C20.585 22.9297 20.7347 22.9916 20.8909 22.9916H22.5919C22.7481 22.9916 22.8978 22.9297 23.0082 22.8192C23.1186 22.7088 23.1807 22.5591 23.1807 22.4029C23.1807 22.2468 23.1186 22.097 23.0082 21.9866C22.8978 21.8762 22.7481 21.8141 22.5919 21.8141Z" fill="white"/>
<path d="M22.5919 25.2232H20.8909C20.8086 25.214 20.7253 25.2223 20.6464 25.2476C20.5675 25.2728 20.4948 25.3144 20.4331 25.3696C20.3713 25.4249 20.3221 25.4924 20.2883 25.5681C20.2544 25.6437 20.237 25.7255 20.237 25.8083C20.237 25.8912 20.2544 25.9732 20.2883 26.0488C20.3221 26.1244 20.3713 26.192 20.4331 26.2472C20.4948 26.3024 20.5675 26.3441 20.6464 26.3693C20.7253 26.3945 20.8086 26.4028 20.8909 26.3936H22.5919C22.6742 26.4028 22.7576 26.3945 22.8365 26.3693C22.9154 26.3441 22.988 26.3024 23.0498 26.2472C23.1115 26.192 23.161 26.1244 23.1948 26.0488C23.2286 25.9732 23.2461 25.8912 23.2461 25.8083C23.2461 25.7255 23.2286 25.6437 23.1948 25.5681C23.161 25.4924 23.1115 25.4249 23.0498 25.3696C22.988 25.3144 22.9154 25.2728 22.8365 25.2476C22.7576 25.2223 22.6742 25.214 22.5919 25.2232Z" fill="white"/>
</svg>
