<svg width="29" height="27" viewBox="0 0 29 27" fill="none" xmlns="http://www.w3.org/2000/svg">
<path d="M13.9403 2.72551C13.772 2.72551 13.6105 2.79224 13.4915 2.91126C13.3725 3.03029 13.3055 3.19174 13.3055 3.36007V5.30895C13.3226 5.46636 13.3973 5.61188 13.5152 5.71764C13.633 5.8234 13.7856 5.88189 13.9439 5.88189C14.1023 5.88189 14.255 5.8234 14.3729 5.71764C14.4907 5.61188 14.5654 5.46636 14.5825 5.30895V3.36007C14.5825 3.27609 14.5658 3.19292 14.5335 3.11543C14.5011 3.03794 14.4536 2.96774 14.3938 2.90871C14.3341 2.84968 14.2633 2.80308 14.1855 2.77163C14.1076 2.74018 14.0243 2.72452 13.9403 2.72551Z" fill="white"/>
<path d="M18.0245 2.72551C17.9406 2.72452 17.8572 2.74018 17.7794 2.77163C17.7015 2.80308 17.6307 2.84968 17.571 2.90871C17.5113 2.96774 17.4637 3.03794 17.4314 3.11543C17.399 3.19292 17.3825 3.27609 17.3825 3.36007V5.30895C17.3996 5.46636 17.4741 5.61188 17.592 5.71764C17.7098 5.8234 17.8626 5.88189 18.0209 5.88189C18.1792 5.88189 18.332 5.8234 18.4498 5.71764C18.5677 5.61188 18.6422 5.46636 18.6593 5.30895V3.36007C18.6593 3.19174 18.5924 3.03029 18.4733 2.91126C18.3543 2.79224 18.1929 2.72551 18.0245 2.72551Z" fill="white"/>
<path d="M4.65181 2.26246C4.24095 2.26099 3.83877 2.38145 3.49644 2.60864C3.15411 2.83582 2.88688 3.15953 2.72863 3.53869C2.57038 3.91785 2.52834 4.33539 2.60759 4.73853C2.68683 5.14168 2.88397 5.51225 3.17397 5.8033C3.46396 6.09434 3.83369 6.29281 4.23655 6.37351C4.6394 6.45421 5.05721 6.41354 5.43694 6.25666C5.81666 6.09977 6.14131 5.83364 6.36972 5.49213C6.59814 5.15061 6.72008 4.74908 6.72009 4.33822C6.72107 4.06598 6.66827 3.79614 6.56477 3.54434C6.46127 3.29254 6.30904 3.0638 6.11688 2.87095C5.92473 2.67811 5.69638 2.5251 5.44496 2.42069C5.19354 2.31629 4.92404 2.26246 4.65181 2.26246ZM4.65181 5.12973C4.49317 5.13121 4.33771 5.08533 4.20519 4.99812C4.07267 4.9109 3.96908 4.7862 3.90769 4.63991C3.8463 4.49363 3.82989 4.33238 3.86048 4.17671C3.89107 4.02104 3.96723 3.878 4.07941 3.76582C4.19159 3.65364 4.33463 3.57748 4.4903 3.54689C4.64597 3.5163 4.80721 3.53271 4.9535 3.59411C5.09979 3.6555 5.22448 3.75908 5.3117 3.89161C5.39892 4.02413 5.44479 4.17958 5.44332 4.33822C5.44137 4.54753 5.35726 4.74766 5.20925 4.89567C5.06124 5.04368 4.86111 5.12778 4.65181 5.12973Z" fill="white"/>
<path d="M13.9403 13.2832C13.7713 13.2852 13.61 13.3537 13.4912 13.4739C13.3724 13.5941 13.3056 13.7564 13.3056 13.9254V15.8666C13.2959 15.9563 13.3053 16.047 13.3329 16.1328C13.3606 16.2186 13.406 16.2976 13.4662 16.3647C13.5264 16.4318 13.6001 16.4854 13.6824 16.5222C13.7647 16.5589 13.8538 16.5779 13.944 16.5779C14.0341 16.5779 14.1234 16.5589 14.2058 16.5222C14.2881 16.4854 14.3617 16.4318 14.4219 16.3647C14.4822 16.2976 14.5275 16.2186 14.5552 16.1328C14.5829 16.047 14.5923 15.9563 14.5825 15.8666V13.9254C14.5825 13.7551 14.5148 13.5918 14.3944 13.4713C14.274 13.3509 14.1106 13.2832 13.9403 13.2832Z" fill="white"/>
<path d="M4.65181 12.8054C4.24275 12.8054 3.84277 12.9267 3.50264 13.154C3.16252 13.3812 2.89739 13.7043 2.74085 14.0822C2.5843 14.4601 2.54346 14.8759 2.62327 15.2771C2.70307 15.6783 2.90003 16.0468 3.18928 16.336C3.47854 16.6253 3.84701 16.8223 4.24822 16.9021C4.64942 16.9819 5.06539 16.941 5.44332 16.7845C5.82125 16.6279 6.14429 16.3628 6.37155 16.0227C6.59881 15.6826 6.72009 15.2826 6.72009 14.8735C6.72009 14.325 6.50221 13.7991 6.11434 13.4112C5.72646 13.0233 5.20035 12.8054 4.65181 12.8054ZM4.65181 15.665C4.49527 15.665 4.34228 15.6187 4.21212 15.5318C4.08197 15.4448 3.98036 15.3211 3.92046 15.1765C3.86055 15.0319 3.84489 14.8726 3.87543 14.7191C3.90597 14.5656 3.98149 14.4246 4.09218 14.3139C4.20286 14.2032 4.34388 14.1279 4.49741 14.0973C4.65094 14.0668 4.80998 14.0824 4.9546 14.1423C5.09922 14.2023 5.22292 14.3037 5.30988 14.4338C5.39685 14.564 5.44332 14.717 5.44332 14.8735C5.44137 15.0828 5.35727 15.2831 5.20926 15.4311C5.06125 15.5792 4.86112 15.6631 4.65181 15.665Z" fill="white"/>
<path d="M21.5712 12.335C21.3107 11.7927 20.9015 11.3357 20.3912 11.0171C19.8809 10.6985 19.2907 10.5315 18.6891 10.5356H11.633V8.68391H18.6891C19.5255 8.68589 20.3285 8.35592 20.922 7.76662C21.5155 7.17731 21.851 6.37665 21.855 5.54029V3.15847C21.857 2.32536 21.5289 1.52548 20.9426 0.933596C20.3563 0.341708 19.5594 0.0060003 18.7263 8.01224e-05H3.31519C2.90141 -0.00287196 2.49111 0.0757805 2.10769 0.231408C1.72428 0.387036 1.37515 0.61665 1.08048 0.907163C0.785808 1.19768 0.551388 1.54337 0.390325 1.92453C0.229262 2.3057 0.144792 2.71478 0.141861 3.12857V5.51057C0.139896 5.92597 0.219822 6.33765 0.3772 6.72209C0.534577 7.10652 0.766281 7.45617 1.05897 7.75094C1.35166 8.04571 1.69959 8.27972 2.0829 8.43982C2.46621 8.59992 2.87737 8.68293 3.29277 8.68391H10.3562V10.5356H3.31519C2.47882 10.5317 1.67502 10.8595 1.08012 11.4475C0.485213 12.0354 0.147784 12.8352 0.141861 13.6716V16.0459C0.139896 16.4613 0.219822 16.873 0.3772 17.2575C0.534577 17.6419 0.766281 17.9915 1.05897 18.2863C1.35166 18.5811 1.69959 18.8153 2.0829 18.9754C2.46621 19.1355 2.87737 19.2183 3.29277 19.2193H10.3562V21.0486C9.8839 21.1643 9.45187 21.406 9.10605 21.7478C8.76024 22.0897 8.51368 22.519 8.39256 22.99H3.62126C3.50388 22.6696 3.30096 22.3875 3.03447 22.1744C2.76797 21.9613 2.44808 21.8251 2.1097 21.781C1.77132 21.7369 1.42733 21.7866 1.11512 21.9243C0.802904 22.062 0.534495 22.2827 0.338919 22.5623C0.143342 22.842 0.0281399 23.1697 0.00587166 23.5102C-0.0163966 23.8507 0.0550978 24.191 0.21259 24.4937C0.370083 24.7964 0.607484 25.05 0.899101 25.2272C1.19072 25.4045 1.52547 25.4985 1.86671 25.4989C2.25187 25.5054 2.62915 25.3895 2.94441 25.1682C3.25968 24.9468 3.4966 24.6312 3.62126 24.2667H8.39256C8.53382 24.8535 8.86826 25.3757 9.3423 25.7491C9.81635 26.1226 10.4024 26.3255 11.0059 26.3255C11.6094 26.3255 12.1953 26.1226 12.6693 25.7491C13.1434 25.3757 13.478 24.8535 13.6192 24.2667H16.8821C18.0916 25.3033 19.6348 25.8682 21.2277 25.8572C22.9975 25.8664 24.7005 25.1816 25.9713 23.9497C27.2421 22.7179 27.9795 21.0372 28.0254 19.2679C28.0713 17.4987 27.422 15.782 26.2169 14.4859C25.0117 13.1898 23.3465 12.4176 21.5786 12.335H21.5712ZM2.4566 23.6544C2.45466 23.8103 2.39181 23.9593 2.2816 24.0695C2.1714 24.1797 2.02255 24.2424 1.86671 24.2443C1.71026 24.2443 1.56024 24.1823 1.44962 24.0717C1.339 23.9611 1.27681 23.8109 1.27681 23.6544C1.27681 23.498 1.339 23.348 1.44962 23.2373C1.56024 23.1267 1.71026 23.0647 1.86671 23.0647C2.02255 23.0667 2.1714 23.1293 2.2816 23.2395C2.39181 23.3497 2.45466 23.4986 2.4566 23.6544ZM3.33762 7.46675C3.08597 7.46773 2.83648 7.41909 2.60371 7.32347C2.37094 7.22785 2.15947 7.08708 1.98118 6.90948C1.8029 6.73189 1.66136 6.52099 1.56483 6.2886C1.4683 6.0562 1.41863 5.80688 1.41863 5.55524V3.18836C1.42061 2.68072 1.62372 2.19456 1.98337 1.8363C2.34303 1.47805 2.82997 1.27685 3.33762 1.27685H18.7263C19.2333 1.27685 19.7195 1.47838 20.078 1.83685C20.4365 2.19532 20.6378 2.68141 20.6378 3.18836V5.55524C20.6378 6.06219 20.4365 6.54846 20.078 6.90693C19.7195 7.2654 19.2333 7.46675 18.7263 7.46675H3.33762ZM3.33762 17.9201C3.09052 17.922 2.84533 17.8754 2.61629 17.7826C2.38725 17.6899 2.17881 17.5529 2.00269 17.3796C1.82658 17.2062 1.68635 16.9999 1.58999 16.7724C1.49362 16.5448 1.44301 16.3005 1.44105 16.0534V13.6791C1.43909 13.4323 1.48585 13.1876 1.57868 12.959C1.67152 12.7304 1.80866 12.5224 1.9821 12.3469C2.15553 12.1714 2.36181 12.0317 2.58931 11.9362C2.8168 11.8406 3.06097 11.791 3.30772 11.79H18.7114C18.9755 11.784 19.2379 11.8341 19.4812 11.9371C19.7245 12.0401 19.9431 12.1936 20.1227 12.3873C18.7367 12.6219 17.4572 13.2796 16.4599 14.2702C15.4626 15.2608 14.7964 16.5357 14.5526 17.9201H3.33762ZM11.0506 25.0358C10.7732 25.0344 10.5028 24.9507 10.2729 24.7956C10.043 24.6404 9.86412 24.4207 9.75902 24.1641C9.65392 23.9075 9.62727 23.6255 9.68228 23.3536C9.73728 23.0818 9.87158 22.8324 10.0682 22.6369C10.2648 22.4413 10.5149 22.3084 10.787 22.2548C11.0591 22.2012 11.341 22.2295 11.5971 22.3359C11.8531 22.4424 12.0719 22.6224 12.2258 22.8531C12.3797 23.0838 12.4619 23.3549 12.4619 23.6322C12.4651 23.8235 12.4292 24.0134 12.3563 24.1904C12.2834 24.3673 12.1751 24.5275 12.038 24.661C11.901 24.7946 11.7379 24.8988 11.5592 24.9671C11.3804 25.0354 11.1896 25.0664 10.9984 25.0583L11.0506 25.0358ZM13.6342 22.9676C13.5111 22.4951 13.2619 22.065 12.9134 21.723C12.5649 21.3811 12.1301 21.1404 11.6554 21.0263V19.2566H14.4629C14.4842 20.6125 14.9221 21.9289 15.7172 23.0273L13.6342 22.9676ZM21.2427 24.573C20.1543 24.573 19.0904 24.2502 18.1855 23.6455C17.2805 23.0408 16.5751 22.1813 16.1586 21.1758C15.742 20.1703 15.633 19.0639 15.8454 17.9965C16.0577 16.929 16.5819 15.9484 17.3515 15.1788C18.1211 14.4092 19.1017 13.8852 20.1692 13.6729C21.2366 13.4605 22.343 13.5694 23.3485 13.9859C24.354 14.4024 25.2135 15.1078 25.8182 16.0128C26.4229 16.9177 26.7455 17.9816 26.7455 19.07C26.7485 19.7964 26.6076 20.5161 26.331 21.1878C26.0544 21.8595 25.6475 22.4699 25.1339 22.9836C24.6202 23.4973 24.0098 23.9041 23.3381 24.1807C22.6664 24.4573 21.9467 24.5982 21.2202 24.5952L21.2427 24.573Z" fill="white"/>
<path d="M24.5653 21.4966L23.4902 20.4289C23.8348 19.9141 24.0193 19.3086 24.0203 18.6891C24.0236 17.9804 23.7901 17.2909 23.3569 16.73C22.9237 16.1691 22.3155 15.7689 21.629 15.593C20.9424 15.4171 20.2168 15.4756 19.5673 15.7591C18.9177 16.0426 18.3814 16.5348 18.0435 17.1578C17.7056 17.7808 17.5854 18.4988 17.702 19.1979C17.8187 19.8969 18.1655 20.5371 18.6873 21.0166C19.2092 21.4961 19.8764 21.7875 20.5828 21.8447C21.2892 21.9019 21.9945 21.7216 22.5867 21.3323L23.6694 22.4075C23.7935 22.507 23.95 22.557 24.1089 22.5476C24.2677 22.5383 24.4175 22.4704 24.529 22.357C24.6406 22.2435 24.7061 22.0927 24.7128 21.9337C24.7195 21.7747 24.6669 21.619 24.5653 21.4966ZM20.832 20.5782C20.4572 20.5782 20.0908 20.467 19.7791 20.259C19.4674 20.0509 19.2243 19.7552 19.0805 19.4091C18.9368 19.063 18.8988 18.682 18.9713 18.3143C19.0439 17.9466 19.2238 17.6087 19.4883 17.3432C19.7528 17.0777 20.09 16.8964 20.4574 16.8224C20.8248 16.7484 21.2059 16.7848 21.5526 16.9272C21.8993 17.0696 22.1961 17.3116 22.4054 17.6225C22.6146 17.9334 22.7271 18.2994 22.7286 18.6741C22.7335 18.9251 22.6885 19.1744 22.5964 19.4079C22.5042 19.6413 22.3667 19.8541 22.1917 20.034C22.0167 20.2139 21.8077 20.3573 21.5768 20.4558C21.346 20.5544 21.0979 20.6061 20.8469 20.6081L20.832 20.5782Z" fill="white"/>
</svg>
