<svg width="29" height="28" viewBox="0 0 29 28" fill="none" xmlns="http://www.w3.org/2000/svg">
<path d="M26.0733 -0.000108268H2.04667C1.77889 -0.00109455 1.51348 0.0507869 1.26571 0.152351C1.01794 0.253914 0.792657 0.403322 0.602613 0.591974C0.41257 0.780625 0.261431 1.00476 0.158049 1.25177C0.0546659 1.49879 0.00108185 1.76386 9.91822e-05 2.03164V3.53097C9.73547e-05 3.79741 0.0525654 4.06111 0.154754 4.30717C0.256943 4.55324 0.406726 4.77672 0.595475 4.96478C0.784225 5.15283 1.00829 5.30184 1.25473 5.40312C1.50117 5.5044 1.76522 5.55602 2.03166 5.55503H2.12153V18.2993C2.12153 19.2179 2.4865 20.0989 3.13603 20.7484C3.78555 21.3979 4.6665 21.7627 5.58507 21.7627H12.6394L7.93894 26.913C7.84678 27.038 7.80414 27.1925 7.81906 27.3471C7.83397 27.5017 7.90548 27.6453 8.01983 27.7503C8.13419 27.8554 8.28331 27.9145 8.43859 27.9163C8.59388 27.9181 8.74427 27.8624 8.86101 27.76L14.0563 22.0777L19.2515 27.76C19.3643 27.8814 19.5203 27.9534 19.686 27.9604C19.8516 27.9675 20.0133 27.909 20.136 27.7975C20.2574 27.6847 20.3294 27.5285 20.3364 27.3629C20.3434 27.1973 20.285 27.0357 20.1735 26.913L15.4731 21.7627H22.5199C22.9744 21.7637 23.4246 21.6751 23.8448 21.5019C24.265 21.3287 24.6469 21.0742 24.9686 20.7531C25.2903 20.4321 25.5456 20.0508 25.7197 19.631C25.8938 19.2112 25.9834 18.7613 25.9834 18.3068V5.56253H26.066C26.6029 5.56457 27.119 5.35466 27.5022 4.9785C27.8853 4.60235 28.1047 4.09019 28.1126 3.5533V2.05397C28.1145 1.78493 28.0631 1.51829 27.9616 1.26916C27.86 1.02003 27.7102 0.793344 27.5207 0.602406C27.3311 0.411468 27.1056 0.25997 26.8572 0.15656C26.6088 0.0531499 26.3423 -0.000115541 26.0733 -0.000108268ZM24.7391 18.3369C24.7391 18.9269 24.5072 19.4933 24.0935 19.914C23.6798 20.3347 23.1173 20.576 22.5274 20.5859H5.59257C5.00254 20.5859 4.43598 20.354 4.01527 19.9403C3.59457 19.5266 3.35341 18.9641 3.34358 18.3742V5.62989H24.709L24.7391 18.3369ZM26.8605 3.57581C26.8585 3.78725 26.7731 3.98943 26.6229 4.13824C26.4727 4.28706 26.2699 4.37051 26.0585 4.3705H2.06918C1.85773 4.37051 1.65477 4.28706 1.50455 4.13824C1.35434 3.98943 1.26897 3.78725 1.26699 3.57581V2.07648C1.26699 1.97149 1.28772 1.86755 1.32812 1.77065C1.36852 1.67374 1.42777 1.58592 1.50236 1.51203C1.57694 1.43815 1.66534 1.37967 1.76262 1.34017C1.8599 1.30068 1.9642 1.28098 2.06918 1.28197H26.0585C26.1635 1.28098 26.2676 1.30068 26.3649 1.34017C26.4621 1.37967 26.5505 1.43815 26.6251 1.51203C26.6997 1.58592 26.759 1.67374 26.7994 1.77065C26.8398 1.86755 26.8605 1.97149 26.8605 2.07648V3.57581Z" fill="white"/>
<path d="M18.1869 13.119H13.9287V8.87591C13.9307 8.79428 13.9163 8.71316 13.8862 8.63725C13.8561 8.56134 13.8111 8.49218 13.7537 8.4341C13.6963 8.37601 13.6277 8.33002 13.5522 8.29902C13.4766 8.26802 13.3957 8.2526 13.3141 8.25363C12.5915 8.24938 11.8753 8.38908 11.2073 8.66452C10.5393 8.93996 9.93274 9.34573 9.42318 9.85802C8.78758 10.4978 8.31927 11.2841 8.05947 12.1476C7.79966 13.0112 7.75645 13.9256 7.93355 14.8099C8.11064 15.6942 8.50255 16.5212 9.07488 17.2181C9.64721 17.9151 10.3824 18.4604 11.2153 18.8061C12.0483 19.1517 12.9534 19.2872 13.8511 19.2003C14.7487 19.1134 15.6112 18.8069 16.3623 18.3079C17.1135 17.8088 17.7303 17.1325 18.1584 16.3387C18.5864 15.5449 18.8123 14.6581 18.8165 13.7562C18.8175 13.6729 18.802 13.5903 18.7707 13.513C18.7395 13.4357 18.6933 13.3655 18.6348 13.3062C18.5762 13.2469 18.5065 13.1998 18.4296 13.1676C18.3527 13.1355 18.2702 13.1189 18.1869 13.119ZM16.3202 16.7474C15.5084 17.4555 14.4579 17.829 13.3812 17.7923C12.3046 17.7556 11.2821 17.3115 10.5204 16.5497C9.75867 15.788 9.31453 14.7655 9.27785 13.6889C9.24118 12.6123 9.61479 11.5619 10.3229 10.7501C10.9645 10.108 11.7945 9.68764 12.6918 9.55054V13.7487C12.6957 13.9171 12.7653 14.0773 12.8858 14.195C13.0063 14.3126 13.168 14.3786 13.3364 14.3785H17.5346C17.3841 15.2746 16.9599 16.1021 16.3202 16.7474Z" fill="white"/>
<path d="M19.244 7.79653C18.2132 6.77307 16.8208 6.19662 15.3683 6.19214C15.2032 6.19214 15.045 6.25774 14.9283 6.37443C14.8116 6.49112 14.746 6.6494 14.746 6.81442V11.6872C14.744 11.851 14.8065 12.009 14.9202 12.1269C15.0339 12.2448 15.1895 12.3131 15.3533 12.317H20.2261C20.3925 12.3151 20.5515 12.248 20.6692 12.1303C20.7869 12.0127 20.8537 11.8537 20.8557 11.6872C20.8515 10.2287 20.2725 8.83071 19.244 7.79653ZM15.9904 11.0575V7.48154C16.8894 7.6156 17.7215 8.03585 18.3629 8.67998C19.0043 9.32411 19.421 10.1578 19.5513 11.0575H15.9904Z" fill="white"/>
</svg>
