<svg width="28" height="29" viewBox="0 0 28 29" fill="none" xmlns="http://www.w3.org/2000/svg">
<path d="M11.7834 10.0759H8.94944C8.76153 10.0759 8.5812 10.1506 8.44833 10.2835C8.31546 10.4164 8.24094 10.5965 8.24094 10.7844C8.24094 10.9723 8.31546 11.1525 8.44833 11.2854C8.5812 11.4182 8.76153 11.4929 8.94944 11.4929H11.7834C11.9714 11.4929 12.1515 11.4182 12.2844 11.2854C12.4172 11.1525 12.4919 10.9723 12.4919 10.7844C12.4919 10.5965 12.4172 10.4164 12.2844 10.2835C12.1515 10.1506 11.9714 10.0759 11.7834 10.0759Z" fill="white"/>
<path d="M11.7834 15.9282H8.94944C8.76153 15.9282 8.5812 16.0029 8.44833 16.1358C8.31546 16.2687 8.24094 16.4488 8.24094 16.6367C8.24094 16.8246 8.31546 17.0048 8.44833 17.1377C8.5812 17.2705 8.76153 17.3452 8.94944 17.3452H11.7834C11.9714 17.3452 12.1515 17.2705 12.2844 17.1377C12.4172 17.0048 12.4919 16.8246 12.4919 16.6367C12.4919 16.4488 12.4172 16.2687 12.2844 16.1358C12.1515 16.0029 11.9714 15.9282 11.7834 15.9282Z" fill="white"/>
<path d="M11.7834 21.9292H8.94944C8.76153 21.9292 8.5812 22.0039 8.44833 22.1368C8.31546 22.2696 8.24094 22.4498 8.24094 22.6377C8.24094 22.8256 8.31546 23.0058 8.44833 23.1386C8.5812 23.2715 8.76153 23.3462 8.94944 23.3462H11.7834C11.9714 23.3462 12.1515 23.2715 12.2844 23.1386C12.4172 23.0058 12.4919 22.8256 12.4919 22.6377C12.4919 22.4498 12.4172 22.2696 12.2844 22.1368C12.1515 22.0039 11.9714 21.9292 11.7834 21.9292Z" fill="white"/>
<path d="M25.9038 16.7146C25.1949 15.817 24.2916 15.092 23.262 14.5937C22.2324 14.0955 21.1034 13.8372 19.9596 13.8382H19.6124V4.82606C19.6124 4.0042 19.1022 2.84222 16.6295 1.9495C12.5055 0.674058 8.09259 0.674058 3.96865 1.9495C1.48889 2.84222 0.97879 4.0042 0.97879 4.82606V22.5881C0.97879 23.4029 1.49598 24.5648 3.96865 25.4646C6.01234 26.1318 8.15313 26.4528 10.3026 26.4141C11.5507 26.42 12.7972 26.3228 14.0293 26.1235C15.278 27.6982 17.1009 28.7123 19.0973 28.9428C21.0937 29.1733 23.0999 28.6015 24.6745 27.3528C26.2492 26.1042 27.2635 24.2812 27.494 22.2849C27.7245 20.2885 27.1525 18.2823 25.9038 16.7077V16.7146ZM10.3168 2.42415C15.503 2.42415 18.2165 3.99004 18.2165 4.83316C18.2165 5.67627 15.503 7.2349 10.3168 7.2349C5.13056 7.2349 2.40998 5.66919 2.40998 4.83316C2.40998 3.99712 5.13056 2.42415 10.3168 2.42415ZM10.3168 13.1439C5.13056 13.1439 2.42416 11.578 2.42416 10.7349V6.95866C2.9194 7.26123 3.44398 7.51272 3.98992 7.70954C8.11532 8.97535 12.5254 8.97535 16.6508 7.70954C17.1945 7.51286 17.7168 7.26135 18.2094 6.95866V10.7349C18.2094 11.578 15.503 13.1439 10.3168 13.1439ZM18.2094 12.8675V14.0508C16.9793 14.3492 15.8433 14.9499 14.9042 15.7987C13.9652 16.6474 13.2529 17.7172 12.832 18.911C11.9991 19.0018 11.1618 19.0467 10.3239 19.0456C5.13057 19.0456 2.42416 17.4799 2.42416 16.6438V12.8675C2.91959 13.1677 3.44418 13.417 3.98992 13.6114C8.11387 14.8869 12.5268 14.8869 16.6508 13.6114C17.1942 13.417 17.7165 13.1677 18.2094 12.8675ZM10.3168 24.9971C8.33123 25.0332 6.35348 24.7387 4.46456 24.1257C2.95546 23.5801 2.41707 22.9565 2.41707 22.5952V18.7764C2.9125 19.0767 3.43709 19.326 3.98283 19.5204C6.02608 20.1901 8.1669 20.5133 10.3168 20.4768C11.0253 20.4768 11.7338 20.4414 12.4423 20.3776C12.2241 21.8937 12.4712 23.4403 13.1508 24.8129C12.2108 24.9324 11.2644 24.9939 10.3168 24.9971ZM19.9807 27.576C18.763 27.576 17.5726 27.2148 16.5601 26.5383C15.5476 25.8618 14.7586 24.9002 14.2926 23.7752C13.8266 22.6502 13.7046 21.4123 13.9422 20.218C14.1797 19.0237 14.7662 17.9266 15.6273 17.0655C16.4883 16.2045 17.5852 15.6182 18.7796 15.3806C19.9739 15.143 21.2119 15.2649 22.3369 15.7309C23.462 16.1969 24.4235 16.9861 25.1 17.9986C25.7766 19.0111 26.1377 20.2014 26.1377 21.4191C26.1377 23.0508 25.49 24.6157 24.3369 25.7701C23.1838 26.9246 21.6195 27.5741 19.9878 27.576H19.9807Z" fill="white"/>
<path d="M22.5455 20.2855H22.4959V19.3646C22.4959 18.7012 22.2324 18.0651 21.7634 17.5961C21.2943 17.127 20.6582 16.8635 19.9949 16.8635C19.3316 16.8635 18.6954 17.127 18.2264 17.5961C17.7574 18.0651 17.4938 18.7012 17.4938 19.3646V20.2855H17.4018C17.2139 20.2855 17.0338 20.3602 16.9009 20.493C16.768 20.6259 16.6933 20.8061 16.6933 20.994V25.153C16.6933 25.3409 16.768 25.521 16.9009 25.6539C17.0338 25.7868 17.2139 25.8615 17.4018 25.8615H22.5172C22.7051 25.8615 22.8852 25.7868 23.0181 25.6539C23.151 25.521 23.2257 25.3409 23.2257 25.153V20.994C23.2258 20.8109 23.1551 20.6348 23.0283 20.5027C22.9015 20.3706 22.7285 20.2928 22.5455 20.2855ZM18.925 19.3646C18.9077 19.2147 18.9223 19.0628 18.9678 18.919C19.0132 18.7751 19.0888 18.6424 19.1892 18.5298C19.2895 18.4171 19.4125 18.327 19.5502 18.2653C19.6878 18.2036 19.8369 18.1717 19.9878 18.1717C20.1386 18.1717 20.2879 18.2036 20.4256 18.2653C20.5632 18.327 20.6862 18.4171 20.7866 18.5298C20.8869 18.6424 20.9623 18.7751 21.0078 18.919C21.0533 19.0628 21.0679 19.2147 21.0505 19.3646V20.2855H18.925V19.3646ZM21.8512 24.4303H18.1103V21.7167H21.8229L21.8512 24.4303Z" fill="white"/>
</svg>
