<svg width="28" height="28" viewBox="0 0 28 28" fill="none" xmlns="http://www.w3.org/2000/svg">
<path d="M14 5.86133C12.3903 5.86133 10.8168 6.3386 9.47844 7.23289C8.14005 8.12718 7.09684 9.39832 6.48084 10.8855C5.86484 12.3726 5.7036 14.0089 6.01764 15.5877C6.33167 17.1664 7.10684 18.6167 8.24506 19.7549C9.38327 20.8931 10.8335 21.6683 12.4122 21.9823C13.991 22.2963 15.6273 22.1351 17.1145 21.5191C18.6016 20.9031 19.8727 19.8601 20.767 18.5217C21.6613 17.1833 22.1386 15.6096 22.1386 13.9999C22.1386 11.8414 21.2811 9.77145 19.7548 8.24516C18.2285 6.71886 16.1585 5.86133 14 5.86133ZM14 20.7423C12.6709 20.7423 11.3716 20.3484 10.2665 19.6099C9.16139 18.8715 8.30014 17.822 7.79152 16.5941C7.2829 15.3662 7.14978 14.0149 7.40907 12.7113C7.66836 11.4077 8.3084 10.2104 9.24821 9.27055C10.188 8.33074 11.3854 7.69088 12.689 7.43159C13.9925 7.1723 15.3437 7.30523 16.5716 7.81385C17.7995 8.32247 18.849 9.18391 19.5874 10.289C20.3258 11.3941 20.72 12.6933 20.72 14.0223C20.72 15.8046 20.012 17.5139 18.7518 18.7741C17.4916 20.0344 15.7823 20.7423 14 20.7423Z" fill="white"/>
<path d="M27.7611 16.5089L26.3871 15.3291C26.4981 14.2598 26.4706 13.1806 26.3051 12.1184L27.6267 10.8491C27.7221 10.753 27.7876 10.6314 27.8154 10.4989C27.8432 10.3664 27.8321 10.2288 27.7835 10.1024L26.2005 6.48122C26.141 6.34966 26.0425 6.23953 25.9183 6.16604C25.794 6.09255 25.65 6.05924 25.5061 6.07052L23.6918 6.20487C23.0224 5.35416 22.2384 4.60032 21.3621 3.96487L21.4144 2.14304C21.412 1.99987 21.3686 1.86042 21.2892 1.74127C21.2097 1.62212 21.0976 1.52837 20.9663 1.47112L17.2853 0.0523397C17.1556 0.00724338 17.0155 0.00156086 16.8826 0.0361157C16.7497 0.0706706 16.6299 0.143919 16.5386 0.24648L15.3588 1.61294C14.2893 1.50954 13.2112 1.53702 12.1483 1.69497L10.8863 0.380829C10.7839 0.283063 10.656 0.216456 10.5172 0.188694C10.3784 0.160932 10.2346 0.173188 10.1025 0.224058L6.48853 1.80708C6.35549 1.86312 6.24348 1.95958 6.16843 2.08289C6.09337 2.2062 6.05903 2.35004 6.07035 2.49395L6.2047 4.31578C5.354 4.9851 4.60016 5.76918 3.9647 6.64546L2.14288 6.59315C1.9994 6.58999 1.85847 6.63141 1.73947 6.71164C1.62047 6.79186 1.52932 6.90703 1.47843 7.04122L0.0521761 10.7222C0.0134894 10.8526 0.0112196 10.991 0.0454313 11.1225C0.079643 11.2541 0.149045 11.3739 0.246317 11.4689L1.62025 12.6487C1.50936 13.718 1.53704 14.797 1.70246 15.8592L0.380848 17.1212C0.289992 17.2201 0.227427 17.3416 0.199832 17.473C0.172238 17.6044 0.180664 17.7408 0.224077 17.8679L1.80692 21.4816C1.86521 21.6146 1.96328 21.7263 2.08765 21.8012C2.21201 21.8761 2.35649 21.9105 2.50126 21.8998L4.32327 21.7655C4.98797 22.6178 5.76964 23.3719 6.6453 24.0055L6.59298 25.8273C6.58983 25.9708 6.63125 26.1117 6.71147 26.2307C6.7917 26.3497 6.90686 26.4408 7.04106 26.4917L10.7221 27.918C10.8525 27.9622 10.9931 27.9666 11.126 27.9308C11.259 27.8949 11.3783 27.8202 11.4687 27.7164L12.6485 26.3499C13.7178 26.4608 14.797 26.4333 15.8592 26.2679L17.1211 27.5895C17.2174 27.6844 17.3395 27.7491 17.4722 27.7756C17.6048 27.8022 17.7422 27.7893 17.8677 27.7388L21.4817 26.1558C21.6154 26.1007 21.728 26.0044 21.8032 25.8809C21.8784 25.7573 21.9121 25.613 21.8997 25.4689L21.7653 23.6471C22.6195 22.9817 23.3739 22.1971 24.0053 21.3174L25.8271 21.3772C25.9706 21.3803 26.1115 21.3389 26.2305 21.2587C26.3495 21.1785 26.4409 21.0633 26.4918 20.9291L27.9178 17.2481C27.9659 17.1229 27.9766 16.9864 27.9488 16.8553C27.921 16.7241 27.8558 16.6038 27.7611 16.5089ZM25.4091 20.0033L23.7067 19.9584C23.5893 19.9541 23.4726 19.9801 23.368 20.0337C23.2634 20.0873 23.1744 20.1668 23.1093 20.2647C22.4541 21.2431 21.6359 22.1017 20.6901 22.8033C20.5952 22.8732 20.5195 22.966 20.4699 23.073C20.4203 23.1801 20.3984 23.2979 20.4063 23.4156L20.5334 25.118L17.8154 26.3125L16.6358 25.0806C16.5543 25 16.4553 24.9391 16.3465 24.9029C16.2377 24.8666 16.1221 24.8559 16.0085 24.8715C14.8434 25.0865 13.652 25.1193 12.4768 24.9687C12.3624 24.9534 12.246 24.9664 12.1379 25.0068C12.0298 25.0472 11.9333 25.1135 11.857 25.2L10.7594 26.477L7.99681 25.4091L8.04166 23.7067C8.04671 23.5891 8.02113 23.4723 7.96746 23.3676C7.9138 23.2629 7.83378 23.174 7.7354 23.1095C6.75899 22.4518 5.90077 21.6339 5.19681 20.6903C5.12682 20.5954 5.03403 20.5195 4.92702 20.4699C4.82001 20.4203 4.70217 20.3985 4.58449 20.4065L2.88207 20.5334L1.68751 17.8156L2.91944 16.6358C3.00353 16.5554 3.06614 16.4552 3.10137 16.3443C3.13659 16.2334 3.14332 16.1154 3.12106 16.0012C2.91214 14.8353 2.88184 13.6445 3.03137 12.4695C3.04609 12.3563 3.03273 12.2411 2.99236 12.1343C2.95198 12.0275 2.88598 11.9323 2.80004 11.8572L1.52327 10.7596L2.59095 7.9895L4.29337 8.04164C4.41059 8.04456 4.52663 8.01819 4.63098 7.96471C4.73532 7.91123 4.82467 7.83243 4.89074 7.73557C5.54189 6.75392 6.36079 5.89465 7.30994 5.19698C7.40198 5.12436 7.47557 5.031 7.52486 4.92463C7.57415 4.81826 7.59768 4.70182 7.59358 4.58466L7.46671 2.88224L10.1845 1.6875L11.3643 2.91961C11.4436 3.00307 11.5425 3.06521 11.6521 3.10044C11.7617 3.13567 11.8783 3.14286 11.9914 3.12122C13.1573 2.91242 14.3483 2.88212 15.5233 3.03153C15.6383 3.04597 15.7549 3.03166 15.8631 2.98997C15.9712 2.94828 16.0673 2.88045 16.1429 2.79255L17.2405 1.52325L20.0033 2.59112L19.9584 4.29336C19.9541 4.41079 19.9799 4.52747 20.0335 4.63205C20.0871 4.73664 20.1666 4.82566 20.2645 4.89073C21.2429 5.54592 22.1017 6.36419 22.8033 7.30992C22.8726 7.40507 22.9655 7.4806 23.0729 7.52903C23.1802 7.57746 23.2982 7.59723 23.4154 7.58627L25.1178 7.46669L26.3126 10.1847L25.0805 11.3644C24.9964 11.4433 24.934 11.5422 24.8987 11.6519C24.8634 11.7616 24.8565 11.8785 24.8788 11.9915C25.0878 13.1574 25.1181 14.3483 24.9685 15.5233C24.9569 15.6374 24.9718 15.7526 25.0119 15.8601C25.0521 15.9676 25.1164 16.0645 25.2 16.143L26.4768 17.2406L25.4091 20.0033Z" fill="white"/>
<path d="M14 10.0204C13.2128 10.0204 12.4434 10.2537 11.7889 10.691C11.1345 11.1283 10.6243 11.7499 10.3231 12.4771C10.0219 13.2043 9.94316 14.0046 10.0967 14.7766C10.2503 15.5486 10.6292 16.2576 11.1857 16.8142C11.7423 17.3708 12.4516 17.7498 13.2236 17.9034C13.9956 18.057 14.7956 17.978 15.5228 17.6768C16.25 17.3756 16.8716 16.8655 17.3089 16.211C17.7462 15.5565 17.9796 14.7871 17.9796 14C17.9796 12.9445 17.5603 11.9323 16.814 11.186C16.0676 10.4396 15.0554 10.0204 14 10.0204ZM14 16.5836C13.4872 16.5836 12.9859 16.4313 12.5597 16.1463C12.1334 15.8613 11.8014 15.4562 11.6055 14.9824C11.4097 14.5085 11.3588 13.9871 11.4594 13.4843C11.5599 12.9815 11.8074 12.52 12.1705 12.1579C12.5336 11.7959 12.9959 11.5496 13.499 11.4505C14.0021 11.3513 14.5232 11.4038 14.9965 11.601C15.4698 11.7983 15.8739 12.1316 16.1577 12.5586C16.4415 12.9857 16.5923 13.4872 16.5909 14C16.5889 14.6859 16.3149 15.343 15.8292 15.8273C15.3436 16.3116 14.6858 16.5836 14 16.5836Z" fill="white"/>
</svg>
