<svg width="76" height="18" viewBox="0 0 76 18" fill="none" xmlns="http://www.w3.org/2000/svg">
<path d="M8.3608 5.27349H3.88637V4.5448C3.34944 5.03059 2.78056 5.50361 2.17971 5.95105H9.85016V11.9212H3.64987C3.59234 12.3239 3.54759 12.5604 3.52202 12.6947H10.1506V17.8083H8.18181V17.265H4.94744V17.8658H3.02982V14.6698C2.71249 15.6847 2.21683 16.6349 1.56606 17.4759C1.2112 17.0231 0.796141 16.621 0.332399 16.2806C0.250205 16.2156 0.162534 16.1578 0.0703421 16.108C1.34875 14.4503 1.98796 11.9724 1.98796 8.67406V6.05332L1.66835 6.27704L1.34875 6.48798C1.04807 5.92762 0.64976 5.42542 0.172598 5.00503L0 4.87719C1.82684 3.8455 3.37896 2.38985 4.52558 0.63287C4.61507 0.492246 4.68536 0.370794 4.74928 0.255737H6.77559C8.19723 1.30055 9.53703 2.45233 10.7834 3.70105L9.31961 5.38855C8.98083 5.01142 8.6804 4.64707 8.30966 4.28273L8.3608 5.27349ZM3.82247 10.3488H7.8111V9.62008H3.88637C3.88637 9.77349 3.84804 10.0228 3.82247 10.3488ZM7.8111 7.56184H3.88637V8.25219H7.8175L7.8111 7.56184ZM4.75568 3.72662H7.7919C7.09304 3.05758 6.52416 2.54622 6.08524 2.19253C5.53552 2.87648 5.09446 3.38784 4.75568 3.7394V3.72662ZM8.18181 14.3055H4.94744V15.6542H8.18181V14.3055ZM13.1484 2.33955V13.1293H10.9943V2.35233L13.1484 2.33955ZM15.1875 0.421932H17.3992V15.2323C17.3992 16.2422 17.1882 16.9134 16.76 17.233C16.6461 17.3244 16.5216 17.4017 16.3892 17.4631C15.2447 17.8515 14.0348 18.0101 12.8288 17.9297C12.695 17.1237 12.443 16.3419 12.081 15.6094C12.8416 15.6094 13.7173 15.6414 14.7017 15.6414C15.0149 15.6414 15.1747 15.4752 15.1875 15.2131V0.421932Z" fill="white"/>
<path d="M25.1911 11.4354V11.5888C25.4851 11.7997 26.1435 12.2983 27.1535 13.0845L27.9205 13.6854L26.591 15.3153C26.1587 14.7837 25.691 14.2818 25.1911 13.8132V17.8977H22.9794V14.0625C22.2923 15.0611 21.4731 15.9621 20.5441 16.7408C20.1535 16.1458 19.6726 15.6153 19.1187 15.1683C19.0994 15.1587 19.0821 15.1457 19.0675 15.13C20.3084 14.273 21.3756 13.1885 22.2124 11.934L22.532 11.429H19.6108V9.51136H22.9794V8.04759H19.5533V6.12997H21.3111C21.2137 5.41 21.0247 4.70543 20.7486 4.03338L21.912 3.75213H19.7579V1.89844H22.9539V0.153412H25.1655V1.89844H28.3615V3.75213H26.3928L27.4986 3.97585C27.1471 4.83878 26.8594 5.55469 26.5782 6.12997H28.4958V8.04759H25.1655V9.52415H28.3296V11.4418L25.1911 11.4354ZM25.434 3.76491H22.5512C22.8776 4.43081 23.0935 5.14541 23.1904 5.88068L22.2188 6.14276H25.9837L24.7053 5.88068C24.9986 5.1982 25.2422 4.49537 25.434 3.7777V3.76491ZM37.2273 6.32173V8.43111H35.412V17.8146H33.2067V8.43111H31.2891C31.2507 12.7649 30.2642 15.9439 28.3296 17.968C28.0178 17.456 27.5965 17.0194 27.0959 16.6896C26.9715 16.5911 26.8389 16.5034 26.6996 16.4276C28.1783 14.8594 28.9837 12.5497 29.1158 9.49858C29.1158 9.09588 29.1158 8.66122 29.1158 8.18182V1.5277L30.4645 1.90483C32.1517 1.54596 33.7877 0.97913 35.3353 0.217331L37.125 1.88566C35.2277 2.66444 33.2578 3.25325 31.2443 3.64347V6.34091L37.2273 6.32173Z" fill="white"/>
<path d="M46.1634 10.4638L44.8338 12.2663C44.4937 11.5359 44.105 10.8291 43.6705 10.1506V17.9425H41.4652V11.0263C40.9235 12.37 40.224 13.6446 39.3814 14.8231C39.103 14.0686 38.7519 13.3429 38.3331 12.6562C39.5209 11.1793 40.4522 9.51339 41.0881 7.72797C41.0881 7.65127 41.1392 7.58735 41.1648 7.52343H38.576V5.38848H41.4652V3.23437C40.3786 3.39417 39.6563 3.49644 39.3111 3.53479C39.1772 2.92097 38.9623 2.3277 38.6719 1.77059C40.79 1.50741 42.8666 0.979125 44.853 0.198146L46.1314 2.05184C45.3246 2.34808 44.498 2.58731 43.6577 2.76775V5.38848H46.2145V7.52343H43.6577V7.67044C44.2585 8.25851 45.0512 9.13849 46.0355 10.3104L46.1634 10.4638ZM56.5377 12.6946L54.2876 13.0845V17.9169H52.0441V13.4936L46.2401 14.4908L45.8821 12.3175L52.0441 11.2692V0.0319519H54.2876V10.8984L56.2053 10.5852L56.5377 12.6946ZM51.0149 8.96164L49.4553 10.4254C48.6333 9.36367 47.6698 8.41952 46.5916 7.61931L46.4254 7.48507L47.8828 6.20666C48.9665 6.93948 49.9599 7.7977 50.8424 8.76348L51.0149 8.96164ZM51.5583 3.94388L49.9667 5.35013C49.2578 4.36745 48.4118 3.49136 47.4545 2.74857C47.3267 2.65908 47.2181 2.56959 47.1158 2.48649L48.5988 1.20809C49.7081 1.98241 50.7042 2.9075 51.5583 3.95667V3.94388Z" fill="white"/>
<path d="M64.1058 8.17543L64.3807 10.2592L62.3416 10.8217V15.4048C62.3848 15.7316 62.355 16.0639 62.2544 16.3778C62.1538 16.6916 61.9849 16.9793 61.7599 17.2202C61.6756 17.297 61.5809 17.3615 61.4787 17.4119C60.5508 17.7506 59.562 17.89 58.5767 17.821C58.4488 17.1052 58.2342 16.4075 57.9375 15.7436C58.4361 15.7436 59.0305 15.7436 59.7145 15.7436C59.951 15.6925 60.0788 15.571 60.0916 15.3665V11.4354L58.2187 11.902L57.6243 9.70952C58.0717 9.62003 58.9027 9.43466 60.0788 9.14702V5.75284H57.8672V3.63707H60.0788V0.00639341H62.3416V3.63707H64.2145V5.75284H62.3416V8.58452L64.1058 8.17543ZM73.5596 7.05682L75.0042 7.69602C74.4022 10.1035 73.1739 12.3089 71.4439 14.0881C72.7944 14.9904 74.2974 15.6401 75.8799 16.0057C75.3098 16.567 74.831 17.214 74.4609 17.9233C74.4535 17.9512 74.4404 17.9773 74.4225 18C72.6902 17.5096 71.0689 16.6892 69.6477 15.5838C68.0928 16.6007 66.3952 17.3805 64.6108 17.8977C64.3303 17.1582 63.9309 16.4694 63.4283 15.8587L63.3899 15.8203C65.0131 15.4551 66.5641 14.8221 67.9794 13.9474C66.8239 12.5849 65.9016 11.0406 65.25 9.37713L65.8316 9.21094H64.8409V7.1527H68.6058V4.85156H64.4829V2.73579H68.6058V0H70.8686V2.73579H75.1768V4.85156H70.8686V7.1527H73.1761L73.5596 7.05682ZM72.115 9.21094H67.4552C67.9953 10.4695 68.7623 11.6179 69.718 12.5987C70.7272 11.6339 71.5411 10.4837 72.115 9.21094Z" fill="white"/>
</svg>
